<svg width="33" height="30" viewBox="0 0 33 30" fill="none" xmlns="http://www.w3.org/2000/svg">
<path d="M31.5004 4.64001C30.1604 1.89001 26.3004 -0.359991 21.8104 0.950009C19.6648 1.56975 17.7929 2.89879 16.5004 4.72001C15.2078 2.89879 13.3359 1.56975 11.1904 0.950009C6.69036 -0.339991 2.84036 1.89001 1.50036 4.64001C-0.379645 8.49001 0.400356 12.82 3.82036 17.51C6.50036 21.18 10.3304 24.9 15.8904 29.22C16.0661 29.3571 16.2825 29.4315 16.5054 29.4315C16.7282 29.4315 16.9446 29.3571 17.1204 29.22C22.6704 24.91 26.5104 21.22 29.1904 17.51C32.6004 12.82 33.3804 8.49001 31.5004 4.64001Z" fill="#FC6A57"/>
</svg>
