<svg width="25" height="29" viewBox="0 0 25 29" fill="none" xmlns="http://www.w3.org/2000/svg">
<path d="M15.4897 0.0777987C14.3722 -0.262261 13.4853 0.574703 13.1957 1.38252C13.0296 1.84542 12.8784 2.27431 12.736 2.67683C12.1705 4.27719 11.7535 5.4563 11.1839 6.64304C9.38696 10.3899 7.09302 13.3221 2.80485 15.3361C1.16797 16.105 0.116946 17.9719 0.631607 19.8644L1.46836 22.9402C1.70347 23.8051 2.16039 24.5899 2.79172 25.2131C3.42306 25.8363 4.20581 26.2753 5.05878 26.4845L14.5994 28.8233C16.1841 29.2119 17.8543 28.954 19.2565 28.1043C20.6587 27.2545 21.6828 25.8796 22.1118 24.2706L24.3725 15.792C24.9902 13.4741 23.2855 11.1894 20.938 11.1894H17.5205C18.0047 9.49607 18.3763 7.42101 18.3613 5.53333C18.3518 4.36117 18.1932 3.19594 17.7707 2.22712C17.3374 1.2347 16.6092 0.417165 15.4897 0.0777987Z" fill="#FC6A57"/>
</svg>
