<svg width="140" height="28" viewBox="0 0 140 28" fill="none" xmlns="http://www.w3.org/2000/svg">
<path d="M13.52 17.53C13.26 17.73 12.92 17.9 12.5 18.04C12.1 18.18 11.63 18.25 11.09 18.25C10.37 18.25 9.77 18.16 9.29 17.98C8.83 17.8 8.53 17.49 8.39 17.05C7.83 15.27 7.37 13.84 7.01 12.76C6.65 11.68 6.37 10.73 6.17 9.91H6.02C5.96 11.09 5.91 12.17 5.87 13.15C5.85 14.11 5.83 15.05 5.81 15.97C5.81 16.87 5.79 17.8 5.75 18.76C5.73 19.7 5.69 20.74 5.63 21.88C5.37 21.96 5.03 22.04 4.61 22.12C4.19 22.2 3.77 22.24 3.35 22.24C2.49 22.24 1.81 22.1 1.31 21.82C0.81 21.54 0.56 21.03 0.56 20.29C0.56 19.79 0.58 19.11 0.62 18.25C0.66 17.37 0.71 16.39 0.77 15.31C0.85 14.21 0.92 13.06 0.98 11.86C1.06 10.66 1.14 9.47 1.22 8.29C1.3 7.11 1.37 6.01 1.43 4.99C1.59 4.73 1.94 4.45 2.48 4.15C3.02 3.85 3.78 3.7 4.76 3.7C5.82 3.7 6.65 3.87 7.25 4.21C7.87 4.53 8.31 5.06 8.57 5.8C8.81 6.44 9.07 7.2 9.35 8.08C9.63 8.94 9.91 9.82 10.19 10.72C10.47 11.6 10.72 12.39 10.94 13.09H11.09C11.57 11.43 12.05 9.81 12.53 8.23C13.03 6.63 13.47 5.31 13.85 4.27C14.15 4.11 14.54 3.98 15.02 3.88C15.5 3.76 16.02 3.7 16.58 3.7C17.56 3.7 18.36 3.85 18.98 4.15C19.6 4.43 19.96 4.84 20.06 5.38C20.14 5.78 20.22 6.39 20.3 7.21C20.4 8.03 20.5 8.97 20.6 10.03C20.7 11.09 20.8 12.2 20.9 13.36C21 14.5 21.09 15.61 21.17 16.69C21.27 17.77 21.35 18.75 21.41 19.63C21.47 20.49 21.51 21.17 21.53 21.67C21.19 21.87 20.83 22.01 20.45 22.09C20.09 22.19 19.62 22.24 19.04 22.24C18.3 22.24 17.66 22.11 17.12 21.85C16.6 21.59 16.32 21.08 16.28 20.32C16.2 18.86 16.14 17.5 16.1 16.24C16.06 14.98 16.03 13.83 16.01 12.79C15.99 11.75 15.96 10.84 15.92 10.06H15.77C15.57 10.84 15.28 11.82 14.9 13C14.52 14.18 14.06 15.69 13.52 17.53ZM26.3068 18.28C26.0068 17.6 25.6868 16.82 25.3468 15.94C25.0068 15.04 24.6468 13.97 24.2668 12.73C23.9068 11.47 23.5068 9.95 23.0668 8.17C23.3468 7.89 23.7168 7.65 24.1768 7.45C24.6568 7.23 25.1768 7.12 25.7368 7.12C26.4368 7.12 27.0168 7.27 27.4768 7.57C27.9368 7.85 28.2768 8.39 28.4968 9.19C28.8968 10.59 29.2968 11.98 29.6968 13.36C30.0968 14.72 30.4868 16.08 30.8668 17.44H30.9868C31.3068 16.52 31.6168 15.51 31.9168 14.41C32.2368 13.31 32.5268 12.19 32.7868 11.05C33.0668 9.89 33.2968 8.77 33.4768 7.69C33.8168 7.51 34.1668 7.37 34.5268 7.27C34.8868 7.17 35.2668 7.12 35.6668 7.12C36.3668 7.12 36.9768 7.27 37.4968 7.57C38.0168 7.87 38.2768 8.39 38.2768 9.13C38.2768 9.77 38.1968 10.51 38.0368 11.35C37.8768 12.19 37.6568 13.08 37.3768 14.02C37.0968 14.96 36.7768 15.91 36.4168 16.87C36.0568 17.81 35.6768 18.72 35.2768 19.6C34.8768 20.46 34.4768 21.24 34.0768 21.94C32.9568 23.88 31.9168 25.32 30.9568 26.26C29.9968 27.2 29.0268 27.67 28.0468 27.67C27.2468 27.67 26.5768 27.42 26.0368 26.92C25.4968 26.42 25.1768 25.77 25.0768 24.97C25.4968 24.61 25.9168 24.22 26.3368 23.8C26.7768 23.38 27.1968 22.93 27.5968 22.45C27.9968 21.99 28.3568 21.53 28.6768 21.07C28.3368 20.97 27.9668 20.74 27.5668 20.38C27.1868 20 26.7668 19.3 26.3068 18.28ZM56.9961 13.81C56.8161 14.73 56.5761 15.69 56.2761 16.69C55.9961 17.69 55.7261 18.62 55.4661 19.48C55.2061 20.34 55.0061 21.01 54.8661 21.49C54.6061 21.73 54.2261 21.92 53.7261 22.06C53.2461 22.22 52.6761 22.3 52.0161 22.3C51.2161 22.3 50.5061 22.19 49.8861 21.97C49.2861 21.73 48.8861 21.4 48.6861 20.98C48.5061 20.58 48.3061 20.02 48.0861 19.3C47.8661 18.56 47.6361 17.72 47.3961 16.78C47.1761 15.82 46.9561 14.83 46.7361 13.81C46.5161 12.77 46.3161 11.77 46.1361 10.81C45.9561 9.83 45.8061 8.95 45.6861 8.17C45.9661 7.89 46.3361 7.65 46.7961 7.45C47.2761 7.23 47.7961 7.12 48.3561 7.12C49.0561 7.12 49.6261 7.28 50.0661 7.6C50.5261 7.9 50.8061 8.43 50.9061 9.19C51.1061 10.71 51.2761 11.97 51.4161 12.97C51.5561 13.97 51.6661 14.78 51.7461 15.4C51.8461 16 51.9161 16.47 51.9561 16.81C52.0161 17.15 52.0661 17.42 52.1061 17.62H52.2261C52.3261 17.18 52.4861 16.51 52.7061 15.61C52.9261 14.69 53.1861 13.64 53.4861 12.46C53.7861 11.28 54.0761 10.09 54.3561 8.89C54.7561 8.67 55.1561 8.5 55.5561 8.38C55.9561 8.26 56.4361 8.2 56.9961 8.2C57.6961 8.2 58.2961 8.31 58.7961 8.53C59.2961 8.75 59.6161 9.09 59.7561 9.55C60.0761 10.71 60.3761 11.83 60.6561 12.91C60.9361 13.99 61.1761 14.94 61.3761 15.76C61.5961 16.58 61.7461 17.2 61.8261 17.62H61.9761C62.1961 16.08 62.4061 14.48 62.6061 12.82C62.8261 11.14 63.0261 9.45 63.2061 7.75C63.9261 7.33 64.7061 7.12 65.5461 7.12C66.2461 7.12 66.8261 7.27 67.2861 7.57C67.7461 7.87 67.9761 8.39 67.9761 9.13C67.9761 9.45 67.9261 9.93 67.8261 10.57C67.7261 11.19 67.5961 11.9 67.4361 12.7C67.2761 13.5 67.0861 14.34 66.8661 15.22C66.6661 16.1 66.4561 16.95 66.2361 17.77C66.0361 18.59 65.8361 19.33 65.6361 19.99C65.4561 20.63 65.2961 21.13 65.1561 21.49C64.8961 21.73 64.4661 21.92 63.8661 22.06C63.2861 22.22 62.6661 22.3 62.0061 22.3C60.3261 22.3 59.3361 21.88 59.0361 21.04C58.8761 20.56 58.6661 19.93 58.4061 19.15C58.1461 18.35 57.8861 17.48 57.6261 16.54C57.3861 15.6 57.1761 14.69 56.9961 13.81ZM70.1666 3.37C70.1666 2.61 70.4266 1.97 70.9466 1.45C71.4666 0.929999 72.1366 0.669999 72.9566 0.669999C73.7766 0.669999 74.4466 0.929999 74.9666 1.45C75.4866 1.97 75.7466 2.61 75.7466 3.37C75.7466 4.11 75.4866 4.75 74.9666 5.29C74.4466 5.81 73.7766 6.07 72.9566 6.07C72.1366 6.07 71.4666 5.81 70.9466 5.29C70.4266 4.75 70.1666 4.11 70.1666 3.37ZM70.4066 14.08H75.5066V21.97C75.2866 22.03 74.9666 22.09 74.5466 22.15C74.1466 22.21 73.7066 22.24 73.2266 22.24C72.2466 22.24 71.5266 22.07 71.0666 21.73C70.6266 21.39 70.4066 20.76 70.4066 19.84V14.08ZM75.5066 16.75H70.4066V7.63C70.6266 7.57 70.9366 7.51 71.3366 7.45C71.7566 7.39 72.2066 7.36 72.6866 7.36C73.6866 7.36 74.4066 7.53 74.8466 7.87C75.2866 8.19 75.5066 8.82 75.5066 9.76V16.75ZM91.0534 17.65C91.0534 19.17 90.4734 20.36 89.3134 21.22C88.1734 22.08 86.5034 22.51 84.3034 22.51C82.6034 22.51 81.2034 22.27 80.1034 21.79C79.0234 21.29 78.4834 20.52 78.4834 19.48C78.4834 19 78.5834 18.59 78.7834 18.25C78.9834 17.91 79.2234 17.64 79.5034 17.44C80.0834 17.76 80.7434 18.05 81.4834 18.31C82.2434 18.55 83.1134 18.67 84.0934 18.67C85.3734 18.67 86.0134 18.34 86.0134 17.68C86.0134 17.4 85.8934 17.18 85.6534 17.02C85.4134 16.86 85.0134 16.73 84.4534 16.63L83.5534 16.45C81.8334 16.11 80.5434 15.57 79.6834 14.83C78.8234 14.09 78.3934 13.05 78.3934 11.71C78.3934 10.21 79.0034 9.04 80.2234 8.2C81.4434 7.36 83.0334 6.94 84.9934 6.94C85.9734 6.94 86.8634 7.04 87.6634 7.24C88.4834 7.42 89.1334 7.72 89.6134 8.14C90.0934 8.54 90.3334 9.06 90.3334 9.7C90.3334 10.14 90.2434 10.53 90.0634 10.87C89.9034 11.21 89.6934 11.49 89.4334 11.71C89.2134 11.57 88.8634 11.43 88.3834 11.29C87.9234 11.15 87.4234 11.03 86.8834 10.93C86.3434 10.83 85.8634 10.78 85.4434 10.78C84.7834 10.78 84.2734 10.86 83.9134 11.02C83.5534 11.16 83.3734 11.39 83.3734 11.71C83.3734 11.93 83.4734 12.11 83.6734 12.25C83.8734 12.39 84.2534 12.52 84.8134 12.64L85.7434 12.85C87.6634 13.29 89.0234 13.9 89.8234 14.68C90.6434 15.44 91.0534 16.43 91.0534 17.65ZM107.919 15.85H102.819V13.18C102.819 12.36 102.609 11.79 102.189 11.47C101.789 11.13 101.289 10.96 100.689 10.96C100.089 10.96 99.559 11.07 99.099 11.29C98.639 11.51 98.239 11.75 97.899 12.01V7.9C98.359 7.66 98.909 7.45 99.549 7.27C100.189 7.07 100.889 6.97 101.649 6.97C103.609 6.97 105.139 7.47 106.239 8.47C107.359 9.45 107.919 10.92 107.919 12.88V15.85ZM93.579 14.08H98.679V21.97C98.459 22.03 98.139 22.09 97.719 22.15C97.319 22.21 96.879 22.24 96.399 22.24C95.419 22.24 94.699 22.07 94.239 21.73C93.799 21.39 93.579 20.76 93.579 19.84V14.08ZM102.819 14.08H107.919V21.97C107.699 22.03 107.379 22.09 106.959 22.15C106.559 22.21 106.119 22.24 105.639 22.24C104.659 22.24 103.939 22.07 103.479 21.73C103.039 21.39 102.819 20.76 102.819 19.84V14.08ZM98.679 16.75H93.579V2.44C93.799 2.38 94.109 2.32 94.509 2.26C94.929 2.2 95.379 2.17 95.859 2.17C96.859 2.17 97.579 2.34 98.019 2.68C98.459 3 98.679 3.63 98.679 4.57V16.75ZM113.528 16.99L113.348 13.63L120.278 12.49C120.238 12.09 120.038 11.69 119.678 11.29C119.318 10.89 118.758 10.69 117.998 10.69C117.198 10.69 116.528 10.95 115.988 11.47C115.468 11.99 115.188 12.73 115.148 13.69L115.328 16.21C115.528 17.13 115.978 17.77 116.678 18.13C117.398 18.49 118.198 18.67 119.078 18.67C119.918 18.67 120.718 18.56 121.478 18.34C122.238 18.12 122.848 17.88 123.308 17.62C123.628 17.82 123.898 18.1 124.118 18.46C124.338 18.82 124.448 19.2 124.448 19.6C124.448 20.26 124.198 20.81 123.698 21.25C123.218 21.67 122.548 21.98 121.688 22.18C120.828 22.38 119.838 22.48 118.718 22.48C117.158 22.48 115.748 22.19 114.488 21.61C113.248 21.01 112.258 20.12 111.518 18.94C110.798 17.76 110.438 16.28 110.438 14.5C110.438 13.18 110.648 12.04 111.068 11.08C111.508 10.12 112.088 9.34 112.808 8.74C113.528 8.14 114.328 7.7 115.208 7.42C116.108 7.12 117.028 6.97 117.968 6.97C119.388 6.97 120.628 7.25 121.688 7.81C122.748 8.35 123.578 9.1 124.178 10.06C124.778 11 125.078 12.09 125.078 13.33C125.078 14.01 124.888 14.53 124.508 14.89C124.128 15.25 123.598 15.48 122.918 15.58L113.528 16.99ZM139.833 17.65C139.833 19.17 139.253 20.36 138.093 21.22C136.953 22.08 135.283 22.51 133.083 22.51C131.383 22.51 129.983 22.27 128.883 21.79C127.803 21.29 127.263 20.52 127.263 19.48C127.263 19 127.363 18.59 127.563 18.25C127.763 17.91 128.003 17.64 128.283 17.44C128.863 17.76 129.523 18.05 130.263 18.31C131.023 18.55 131.893 18.67 132.873 18.67C134.153 18.67 134.793 18.34 134.793 17.68C134.793 17.4 134.673 17.18 134.433 17.02C134.193 16.86 133.793 16.73 133.233 16.63L132.333 16.45C130.613 16.11 129.323 15.57 128.463 14.83C127.603 14.09 127.173 13.05 127.173 11.71C127.173 10.21 127.783 9.04 129.003 8.2C130.223 7.36 131.813 6.94 133.773 6.94C134.753 6.94 135.643 7.04 136.443 7.24C137.263 7.42 137.913 7.72 138.393 8.14C138.873 8.54 139.113 9.06 139.113 9.7C139.113 10.14 139.023 10.53 138.843 10.87C138.683 11.21 138.473 11.49 138.213 11.71C137.993 11.57 137.643 11.43 137.163 11.29C136.703 11.15 136.203 11.03 135.663 10.93C135.123 10.83 134.643 10.78 134.223 10.78C133.563 10.78 133.053 10.86 132.693 11.02C132.333 11.16 132.153 11.39 132.153 11.71C132.153 11.93 132.253 12.11 132.453 12.25C132.653 12.39 133.033 12.52 133.593 12.64L134.523 12.85C136.443 13.29 137.803 13.9 138.603 14.68C139.423 15.44 139.833 16.43 139.833 17.65Z" fill="#FC6A57"/>
</svg>
